<svg xmlns="http://www.w3.org/2000/svg" viewBox="0 0 1000.19 1000.19"><defs><style>.cls-2{fill:#db1111;}.cls-3{fill:#f02f2f;}.cls-4{fill:#f12222;}.cls-5{fill:#f02e2e;}.cls-6{fill:#111010;}.cls-7{fill:#111;}.cls-8{fill:#110e0e;}.cls-9{fill:#100a0a;}.cls-10{fill:#110f0f;}.cls-11{fill:#100c0c;}.cls-12{fill:#130f0f;}.cls-13{fill:#120c0c;}.cls-14{fill:#151010;}.cls-15{fill:#141010;}.cls-16{fill:#180d0d;}.cls-17{fill:#160c0c;}.cls-18{fill:#140a0a;}.cls-19{fill:#1a0e0e;}.cls-20{fill:#250c0c;}.cls-21{fill:#201111;}.cls-22{fill:#200b0b;}.cls-23{fill:#1a1111;}.cls-24{fill:#1e1111;}.cls-25{fill:#e82222;}.cls-26{fill:#260d0d;}.cls-27{fill:#1f1111;}.cls-28{fill:#2e0d0d;}.cls-29{fill:#2c1212;}.cls-30{fill:#271212;}.cls-31{fill:#2f0c0c;}.cls-32{fill:#2e1212;}.cls-33{fill:#461111;}.cls-34{fill:#280b0b;}.cls-35{fill:#da1111;}.cls-36{fill:#d41212;}.cls-37{fill:#cb1313;}.cls-38{fill:#121010;}.cls-39{fill:#281111;}</style></defs><title>Asset 1</title><g id="Layer_2" data-name="Layer 2"><g id="Layer_1-2" data-name="Layer 1"><path class="cls-2" d="M484.46,839.4c-13.78,10.8-24.58,24.26-34.49,38.52-2,2.86-3.71,6-7.89,6.14-3.89.1-6.34-1.52-7.13-5.45-3.66-18.22-1.53-35.91,3.48-53.69,6.22-22.05,18.06-40.94,30.47-59.77,7.79-11.82,17.34-22.32,24.61-34.49a242.82,242.82,0,0,0,14-25.88c8.68-19.57,15-39.84,17.79-61.13,2.63-19.76,3.46-39.4-2.33-58.83-1.28-4.3-1.85-8.81-3.11-13.12-2.88-9.87-8.78-17.74-16.71-24.17-.26-.21-.65-.31-.82-.56-6.28-9.72-15.43-6.76-24.15-5.41-7.76,1.2-15.05,4.62-22.59,6-8.73,1.63-11.82,7.67-16.4,13.57-11.67,15-14.61,32.91-18,50.74-.65,3.43-1.57,6.81-2.37,10.22a16.73,16.73,0,0,1-10.16,12.13c-7,3.07-13.84,6.53-20.84,9.62-14,6.19-28.88,6-43.7,4.84-5.1-.38-10.27-.34-15.37-1.51-9.73-2.22-13.26-6.88-11.95-16.88a6,6,0,0,0-2-5.35c-2.43-2.44-3.61-5.35-2.15-8.62s4.47-3.75,7.64-3.31c3.46.48,4.87-.54,3.33-4.07-.76-1.76-.46-3.61-.44-5.43,0-1.63-.4-3-2.18-3.45a2.79,2.79,0,0,0-3.31,1.68c-2.28,5.53-6.71,5.73-11.64,5.07-3.23-.43-5.79.09-7,3.86-1.79,5.56-4.56,7-10.22,6.07-9.23-1.53-13.29.42-18.05,8.65a23.21,23.21,0,0,1-2.69,4.17c-3.5,3.82-8.27,3.16-10.72-1.32a372.64,372.64,0,0,1-21.58-47.64c-1.52-4-3.78-7.78-5.7-11.66-4.14-13.45-7.66-27-8.12-41.2-.19-5.86,2.79-10.84,3.35-16.45,1.52-15.36,6.2-30.06,9.34-45.08,2.34-11.2,5.05-22.26,8.36-33.18.88-2.91,2.3-5.56,5.9-6,4.78-.61,7.18.63,8.73,5.41,3.51,10.88,6.88,21.82,8.36,33.22.21,1.61-.17,3.84,1.93,4,1.91.19,3.27-1.51,4.07-3.22,2.06-4.39,3-9.15,3.81-13.85,2.89-16.6,5.17-33.3,8.13-49.89.55-3.08.09-6.32.11-9.49a45.65,45.65,0,0,1,0-5c.43-3.73.08-8.14,4.37-9.83s7.94.37,10.94,3.81c1.3,1.49,2.5,4.26,4.93,3.39,2.18-.79,2-3.69,2.53-5.7,1.55-5.85,2.24-11.72,5.62-17.27,2.8-4.58,2.32-10.87,3.53-16.37A129.06,129.06,0,0,1,326.83,316a13.78,13.78,0,0,1,3.5-4.19c4.23-3.65,9.19-2.09,10.65,3.33.43,1.61.58,3.6,2.55,3.85,2.16.27,3.18-1.56,3.87-3.3,3.12-7.87,7.93-15.47,14-20.28,10.86-8.55,14-22,23.19-31.28,1.13-1.14,2-2.65,3.14-3.84a51.05,51.05,0,0,0,10.07-13.38c3.35-6.79,9.63-11.81,14.82-17.43,15.84-17.13,33.14-32.75,50.88-47.86,21.76-18.54,44-36.53,68.15-51.92,4-2.57,7.64-5.86,11.58-8.62,2.46-1.73,5-3.19,8.25-3.07,5.84.22,8.29,4.43,5.23,9.52a45.77,45.77,0,0,1-6.17,7.82c-15.27,16-28.63,33.63-41.92,51.3-9.8,13-17.87,27.19-27.36,40.42-2,2.77-3.28,5.57.19,8.74,2.61,2.38,1.91,5.72.27,8.75-2.69,5-6.39,9.37-8,14.89-1.44,4.82-.95,5.54,4,5.6s9.83-1.44,14.86-1.15c1.62.09,3.12-1.08,4.46-2.08,15.76-11.7,32.49-21.91,49.15-32.26,13.44-8.35,27.3-15.86,41.42-22.93,5-2.51,10.35-4.45,15.4-7,9.7-4.75,19.8-8.58,29.64-13,11.25-5.06,23.21-7.94,34.8-11.93C688,167.62,709,162.17,730,156.75c9.76-2.52,19.76-3.89,29.7-5.38,3.19-.48,7.29,0,8.9,4,1.54,3.8-.92,6.29-3.55,8.53a24.83,24.83,0,0,1-5.66,3.13,450.63,450.63,0,0,0-62.32,36.58c-15.16,10.49-29.84,21.69-45,32.25-9.67,6.75-18.88,14.11-28.64,20.72a13.11,13.11,0,0,0-2.58,2.33L619,260.07a8.38,8.38,0,0,1-1.78,1.73c-1.73,1.13-4.82,2.06-3.92,4.29.79,2,4,1.13,6,.78,6-1.06,11.88-1.4,17.8.16,5,1.32,6.67,6.47,3.28,10.45-2.21,2.59-5.38,3.85-8.2,5.6-6.2,3.86-12.79,7.08-18.51,11.74-3.61,2.95-3.91,4.13.09,6.51,10.31,6.13,19.94,13.25,29.74,20.11a20.64,20.64,0,0,0,11.37,3.71c16.57,1,31.83,6.09,45.25,16.17,5.44,4.09,10.92,8.07,15.49,13.23,2.29,2.59,3,5.28,1.85,8.22-1.24,3.13-4.27,4.26-7.37,4.15A59.34,59.34,0,0,0,693.93,369c-3.86.93-4.79,2.32-2.48,5.35,6.59,8.66,11.61,18.2,16.4,27.9a7.3,7.3,0,0,0,4,3.6c12.08,5,21.47,13.43,30.22,22.91,9.78,10.6,15.47,23.52,21.62,36.21A12.08,12.08,0,0,1,765,470.7c-.16,4.3-1.73,6-6,6.28-7.21.42-13.54-2.87-20.17-4.85-2.85-.85-5.58-2-8.62-2.35-2.7-.29-3.51,1.05-3.11,3.13,1.67,8.64,1.3,17.49,2.83,26.15.33,1.89,1,3.24,2.79,3.68,8.53,2.11,14.26,8.2,20.06,14.11,14.12,14.4,21.5,32.21,24.93,51.69.83,4.69,2.48,9.7.41,14.75-1.72,4.19-4.31,5.79-8.52,4.11a44.49,44.49,0,0,1-8.43-4.32c-7.5-5-15.83-8.4-24.06-12-4.23-1.83-5.16-1.23-6.11,3.26-4.71,22.31-11.22,44-22.09,64.19-5.29,9.81-11.56,19.06-17,28.78-2.84,5.07-5.2,10.4-8.69,15.1-2.85,3.84-6.06,6.7-11.31,5.3a4.13,4.13,0,0,0-4.46,1.35c-7.67,8.09-16.68,14.66-25.05,21.94-9.15,8-18.46,15.73-27.37,24q-21.62,19.92-44.62,38.24c-17,13.58-35.72,24.83-52.53,38.61-9.88,8.1-20,16-29.36,24.68C487.26,837.68,485.7,838.29,484.46,839.4Z" transform="translate(-0.91 -0.91)"/><path class="cls-3" d="M603.05,200.14c-5.28,4.27-11.95,5.73-17.85,8.75a603.5,603.5,0,0,0-54,31.16c-11.44,7.43-23,14.68-34,22.75-1.18.86-2.71,1.91-4,1.83-5.56-.34-10.85,1.6-16.34,1.59-4.91,0-5.81-1.28-4.47-6.13,1.49-5.4,4.8-9.87,7.64-14.55,2.32-3.82,3.25-7.18-.61-10.64-3.19-2.86-.74-5.82.87-8,5.85-7.92,10.34-16.69,16-24.69,11.16-15.75,22.36-31.48,34.78-46.28,7.48-8.92,15.26-17.6,22.87-26.42a15,15,0,0,0,2.53-3.68c1.59-3.68-.37-6.62-4.38-7-3.24-.28-5.89,1.14-8.27,3-16.49,12.67-34.39,23.4-50.57,36.52-20.82,16.88-41.27,34.17-60.84,52.5-11.31,10.6-23,21.2-31.65,33.89-9.85,14.49-23.2,26.55-30.18,43a8.88,8.88,0,0,1-5.14,5.13c-3.17,1.22-4.78,4.17-6.43,6.78-3.64,5.73-8.84,10.43-11.07,17.12-.67,2-2.52,3.9-4.87,3.75-2.64-.17-2.32-2.87-2.8-4.69-1.49-5.54-5.9-6.81-10-2.72a17,17,0,0,0-3.13,4.45,131.27,131.27,0,0,0-12.22,39.9,19.21,19.21,0,0,1-3.29,8.65c-3.38,4.88-2.5,11.27-4.59,16.72-.41,1.08-.54,2.27-.88,3.38-.78,2.5-2.05,2.84-3.85.84-1.55-1.74-3.2-3.39-4.69-5.18-2.27-2.74-5.16-3.77-8.47-2.73-3.58,1.13-3.83,4.53-3.78,7.45a122.31,122.31,0,0,1-2.28,27.83c-3.48,16.27-4.14,33-9,49.07-.69,2.31-1.46,4.44-3.33,6-1.33,1.1-2.11,3.77-4.13,2.9-1.6-.69-1.56-3.17-1.72-4.94-1-11.54-4.6-22.46-7.91-33.45-.94-3.12-2.05-6-6.13-6.18-4.24-.23-6.09,2.35-7.1,5.71-2.29,7.65-5.1,15.25-6.31,23.09-2.46,15.82-8.7,30.84-9.94,46.83-.6,7.71-4,14.74-4.32,22.4C222.79,537,225,547.68,228,558.31c1,3.5,2.42,6.92,2,10.68-1.42-.23-1.76-1.38-2.06-2.51-3.56-13.5-7.94-27-6.74-41.11.75-8.84,3.26-17.5,4.95-26.24,4.32-22.33,9.15-44.58,15.74-66.39,1.41-4.68,4.19-7.33,9.49-6.93,3.47.26,5.63,1.83,6.69,5,3.68,10.88,7,21.85,8.78,33.23.21,1.38-.52,3.46,1.49,3.75s2.77-1.65,3.29-3.21c2.72-8.24,3.91-16.83,5.34-25.34,2-11.62,3.54-23.31,5.49-34.94.89-5.32.43-10.63.64-15.95.17-4.34,0-9.2,5-11,4.65-1.72,8.75,0,11.9,4,1,1.25,2,2.71,3.79,3.2,1.59-1.46,1.73-3.53,2.19-5.41,1.41-5.73,2.22-11.39,5.4-16.86,2.76-4.75,2.46-11.23,3.72-16.91a119.56,119.56,0,0,1,10.86-29.93c1.77-3.36,4.15-6.45,8.72-6.49,4.07,0,6.72,1.52,7.44,5.7.22,1.29.09,3,1.93,3,1.57,0,2.06-1.55,2.55-2.75,3.21-7.83,8-15.41,14.15-20.25,10.7-8.45,13.76-21.75,22.88-30.85.46-.45.6-1.21,1-1.7,4.67-5.3,8.8-11,13-16.61,12.13-16.06,26.59-30.23,41.7-43.61,11.33-10,22.64-20.1,34.18-29.9a537,537,0,0,1,57-42.75c4.46-2.87,8.57-6.29,12.88-9.41a12.28,12.28,0,0,1,3.87-2.23c3.75-.94,7.75-1.74,10.51,2,2.6,3.54,1.34,7-1.2,10-6.9,8.1-13.92,16.09-20.88,24.14-10.68,12.34-20.37,25.45-29.85,38.7-8.11,11.34-15.65,23.1-23.35,34.74-1.73,2.62-3.35,5.08,0,8.27,2.76,2.63,2,6.31.15,9.68-2.7,5-6.35,9.37-8.16,14.83-1,3.12-.14,4.71,3.1,4.16,8.1-1.39,16.22-.72,23.79-6.56,14-10.85,29.53-19.76,44.65-29.14,13.58-8.42,27.68-15.8,41.81-23.15,4.82-2.5,10-4.21,15.08-6.28Q603.81,199.47,603.05,200.14Z" transform="translate(-0.91 -0.91)"/><path class="cls-4" d="M484.46,839.4c6.89-8.4,16.19-14,24.25-21.1,16-14.05,34.08-25.45,51.24-38,12.72-9.32,24.74-19.66,36.61-30.12,16.6-14.63,32.92-29.57,50-43.65,7-5.77,14.59-11.11,20.21-18.48a4,4,0,0,1,5.27-1.49c3.91,1.66,6.8,0,9.1-3.07a45.13,45.13,0,0,0,5.06-7.41c7.26-15.2,17.44-28.73,24.83-43.86,9-18.38,14.54-37.85,18.91-57.72,1.33-6.05,2.15-6.38,7.71-4.18,10.24,4.06,19.78,9.46,29.4,14.77,7.27,4,11.18,1.5,10.53-6.94-1.73-22.73-9-43.29-25.23-59.93-6-6.16-11.66-12.93-20.73-14.94-1.79-.4-2.68-1.82-2.86-3.68-.89-9.11-1.82-18.22-2.7-27.33-.34-3.5,1.37-4.59,4.56-3.6,6.68,2.07,13.32,4.23,20,6.27a28.57,28.57,0,0,0,5.85,1.22c6.46.55,9.44-2.88,7-8.81-7.12-17-15.25-33.51-29.67-45.58-7-5.89-13.59-12.92-23-15.4-2.09-.55-3.15-2.32-4-4.17-4.58-9.45-9.56-18.64-15.9-27.08-3.11-4.14-2.14-6,2.93-7.17,5.36-1.21,10.69-2.5,16.27-2.18,2.82.16,5.49-.64,6.68-3.42,1.26-2.93.06-5.4-2.17-7.6-17.31-17.09-37.28-28.32-62.31-28.42a12.13,12.13,0,0,1-7.65-2.8c-9.76-7.21-19.73-14.15-30.06-20.55-6.8-4.22-6.75-4.88-.58-9.61,7-5.39,15-9.2,22.5-13.88,1.87-1.17,3.7-2.37,4.45-4.53,1.24-3.6-.66-6.46-4.7-7.13-6.65-1.09-13.28-.22-19.93.24-1.9.13-4.69,1.14-5.49-.81-1-2.37,1.93-3.48,3.53-4.73,1.39-1.09,2.8-2.36,4.76-2.43,0,2.88-3.5,2.87-4.19,5,4.71,0,9.38,0,14.06,0a52.68,52.68,0,0,1,6.47.26c3.4.45,6.68,1.4,7.58,5.34,1,4.46-.78,7.81-4.62,10.09-5.72,3.4-11.48,6.72-17.2,10.11a36.74,36.74,0,0,0-4.57,3c-5.52,4.51-5.57,4.89.83,8.6,10.37,6,19.88,13.29,29.62,20.2a8.3,8.3,0,0,0,5.14,1.34c26.25.36,47.16,12.08,65,30.45,2.58,2.66,2.56,5.85,1.44,8.83-1.25,3.31-4.52,4.49-7.77,4.48a82.66,82.66,0,0,0-15.78,2c-4.1.78-4.43,2.19-2,5.1,6.5,7.9,10.83,17.09,15.49,26.08a7.68,7.68,0,0,0,3.67,3.85,88.67,88.67,0,0,1,42.47,40.3c3.26,6.17,7.25,11.94,9.68,18.54.86,2.34,1.85,4.61,1.81,7.2-.07,4.75-2.17,7.07-6.9,7.29-7.55.35-14.33-2.74-21.16-5.21-9.14-3.3-9.7-3.21-9.08,6.06.44,6.46,1.27,12.89,1.89,19.33.15,1.61.56,2.94,2.35,3.38,9.06,2.26,14.93,9,21,15.29,15.7,16.28,22.74,36.39,25.5,58.34a26.36,26.36,0,0,1,.07,5.49c-.63,7.37-5.61,10.35-12.18,6.94-9.57-5-18.73-10.73-28.76-14.83-5.72-2.33-5.82-2.48-7.13,3.31-4.88,21.64-11,42.87-21.71,62.45-5.34,9.77-11.37,19.15-17,28.78-3.08,5.3-5.55,11-9.23,15.93-2.84,3.83-6,6.71-11.25,5.62-1.94-.4-3.42.3-4.94,1.63-12.51,10.93-25.13,21.72-37.66,32.64-10.4,9.06-20.68,18.27-31.08,27.34C584.16,763.54,569.15,776,553,787.32c-17.66,12.38-35.42,24.76-51.34,39.48-4.26,3.94-9.31,7-13.34,11.25C487.43,839,486.21,840.28,484.46,839.4Z" transform="translate(-0.91 -0.91)"/><path class="cls-5" d="M603.05,200.14l-.06-1.27c17.07-8.62,34.55-16.06,53-21.31,9.53-2.71,18.72-6.83,28.33-9.46,24.48-6.69,48.69-14.54,74-17.76,7.54-1,13,2.85,11.55,8.81-.86,3.65-3.81,5.75-7,7.34-14.57,7.29-29.17,14.54-42.84,23.45-9.17,6-18.37,11.92-27.34,18.21-17.4,12.2-34.67,24.59-51.93,37-6.57,4.72-12.6,10.2-20,13.73,1.66-4.16,5.71-5.81,9-8.18q23.76-17.34,47.74-34.37c20.6-14.61,41.09-29.41,63.68-40.93,7.11-3.63,14.16-7.38,21.24-11.08a8.78,8.78,0,0,0,1.71-1c2.15-1.86,4.61-3.7,3.63-7.05-1.07-3.68-4.44-3.89-7.35-3.79A76,76,0,0,0,749.11,154c-31.11,5.85-61.24,15.18-91.29,25a498.52,498.52,0,0,0-51.9,20.38A16.87,16.87,0,0,1,603.05,200.14Z" transform="translate(-0.91 -0.91)"/><path class="cls-6" d="M328.08,639.54c16.76-7.75,27.16-20.18,36.68-33.74,8.36-11.91,17.06-23.61,24.18-36.32,8.92-15.92,16.73-32.31,20.63-50.35,2.54-11.77,7.33-23,9.53-34.84,3.46-18.69,15-32.74,26.3-47,10.63-13.45,23.21-24.83,36.86-35.1,1.39-1,4.06-2.47,2.34-4.67-1.26-1.61-3.39-.09-5,.79-14.66,8.23-25.87,20.26-36.78,32.77-9.55,10.94-18.26,22.47-24.24,35.63-5.15,11.35-11.44,22-17.57,32.77a154.06,154.06,0,0,1-41.81,47.65c-9.92,7.42-20.89,13.42-30.81,20.83-18.64,13.93-38.16,26.76-55.06,43-3.76,3.6-6.43,8-9.92,12.25-4.64-7-8-14.24-11.29-21.59-5.1-11.46-10.28-23-14.63-34.64a131.13,131.13,0,0,1-8.7-42.22c4,10.78,4.26,11.07,12.18,3.65,9.75-9.13,16.84-20.15,19.87-33.31,1-4.17,4.4-6,6.6-8.91s4.31-5.39,9.21-5.5c5.67-.14,10.52-4.62,14.57-8.66,12.57-12.52,20.37-27.38,22-45.42.63-7-1.16-13.3-3-19.7A17.41,17.41,0,0,1,310,396.7c2.28-8.21,3.89-16.61,6-25.94-.32,9.77.17,18.49,3.17,26.9.56,1.56.42,3.57,2.4,4s2.79-1.54,3.91-2.68c5.53-5.68,8.9-12.66,12-19.86,2.52-5.9,5.26-11.71,8.23-17.39s1.38-10.89-.2-16.32c-4.1-14.14-4.07-14.12,7.36-22.89,1.55-1.19,2.9-2.66,4.44-4.08,0,2.91-.11,5.5,0,8.08.24,4.48,2.08,5.79,6.13,3.94,16.33-7.42,28.68-18.94,35.65-35.68,2.46-5.9,4.6-7.1,11.14-8,8-1.08,15.78-3.11,23.64-4.87a162.08,162.08,0,0,1,25.94-4.1,6.51,6.51,0,0,0,1.48-.2c4.26-1.27,7.57-4.72,12-5.43,4.23-.68,8.64.59,13.07-.68-7.72,5.92-15.59,11.67-23.13,17.81-8.4,6.84-17.92,12.42-23.61,22.32-2.7,4.7-2.07,8.82.88,12.2,10,11.5,22.18,20.24,35.8,27.13a46,46,0,0,0,21.91,5.3,11.86,11.86,0,0,0,8.49-3.34c14.23-13.56,29.71-25.64,44.78-38.21,8.39-7,16.61-14.21,24.84-21.41,1.57-1.37,3-1.85,5-1a249.6,249.6,0,0,1,38.35,21.58c10.06,6.91,20.18,13.76,29.22,22.13s16.93,17.7,24.76,27.1a215.17,215.17,0,0,1,36,61.19c4,10.48,5.69,21.71,7.45,32.78,2.58,16.26,4.91,32.56,6.81,48.91,1.18,10.19,1.49,20.48,1.95,30.74.5,11.22,1.89,22.55-1,33.61-7.26,27.8-14.43,55.67-31.56,79.57-2.17,3-2.88,7-6.23,9.74.37-4.84,3.84-8.28,4.36-12.72.17-1.41,1.37-3-.67-3.76-1.81-.66-2,1.27-2.67,2.31a429.4,429.4,0,0,1-25,37c-5.22,6.95-12.53,11.7-19,17.36-14.15,12.45-28.51,24.67-42.66,37.11-18.5,16.26-36.91,32.63-57.56,46.4a454.8,454.8,0,0,0-46.4,35.6c-9.6,8.36-20.23,15.63-29.08,24.78-9.53,9.86-18.73,20.14-25.74,32.09-3.34-7.36-3.77-21.36-1.4-32.6a184.47,184.47,0,0,1,28.41-66.11c10-14.83,21.53-28.57,30.8-43.94a242.51,242.51,0,0,0,25.73-59.54C532,653.15,535,632.3,534,611.14c-.92-19.94-4.36-39.54-15-57.09-3.45-5.71-8.38-10.12-14.65-15.28,12.46.16,22.46,3.2,31.52,9.38,8.8,6,16.93,12.76,23.39,21.34.74,1,1.75,1.9,2.95,1.25s1-2.17.41-3.1c-9.14-14.12-20.78-25.57-37.13-30.63-14.22-4.4-29-4.85-43.78-2.77-10.47,1.47-21,2.9-30.84,7.51a310,310,0,0,1,28.81-33.09c11.39-11.52,23-22.86,34.49-34.25.82-.81,2.34-1.55,1.5-2.71-1.05-1.44-2,0-3.21.61-12.78,7-22.72,17.47-32.72,27.69-12.12,12.38-24.18,24.95-34.38,39-8.63,11.88-17,24-23.29,37.41-4.18,8.87-4.06,18.67-6.2,28-1.36,5.91-2,12-4.71,17.57-.92,1.91-1.85,3.59-3.62,4.51-14.51,7.57-29.24,14.73-45.79,16.45C350.86,644,340.14,641.71,328.08,639.54Z" transform="translate(-0.91 -0.91)"/><path class="cls-7" d="M758.23,159.16c-10.41,5.54-20.07,10.59-29.63,15.8-16,8.74-31,19.08-45.82,29.71-22.86,16.43-45.83,32.73-68.48,49.47-16.13,11.92-31.36,25-46.42,38.25s-30.46,26.09-45.58,39.26c-5.88,5.12-11.83,10.28-17,16.1-4.53,5.12-9.66,5.39-15.27,3.79-12.34-3.53-22.64-10.82-32.77-18.39A111.62,111.62,0,0,1,444.13,321c-4.1-4.23-4-6.23.28-9.88,30.41-25.8,63.09-48.45,96.69-69.83a553,553,0,0,1,127.47-59.45,848.9,848.9,0,0,1,84-22.59C754.07,158.87,755.72,159.16,758.23,159.16Z" transform="translate(-0.91 -0.91)"/><path class="cls-8" d="M544.31,130.63l-16.77,19.94c-20.13,23.91-38.88,48.89-53.83,76.34-5.33,9.79-14.07,13.27-22.48,18a139.92,139.92,0,0,0-39.94,33.84,8.06,8.06,0,0,1-1.79,1.73c-2.63,1.69-5.31,3.3-8.79,5.45,1.89-9.27,1.91-18,4.15-26.42.71-2.66,2.07-5.43-.09-8-1.46-1.75.35-2.39,1.06-3.21a491.16,491.16,0,0,1,45.58-46.12c17.14-15.22,34.63-30,52.75-44.06A445,445,0,0,1,544.31,130.63Z" transform="translate(-0.91 -0.91)"/><path class="cls-6" d="M770.84,579.85A243.75,243.75,0,0,0,734.7,562a3.37,3.37,0,0,1-2.42-3.72,419.42,419.42,0,0,0-1.45-44.78c-.1-1.05-.55-2.46.72-3.15s2.13.59,3,1.22c17.31,12.21,29.19,28.13,33.57,49.19C769.4,566.85,771.64,572.8,770.84,579.85Z" transform="translate(-0.91 -0.91)"/><path class="cls-9" d="M233.82,530.64c-3.89-33.9,9.71-63.93,16-95.22C264.86,472.49,263.37,505.69,233.82,530.64Z" transform="translate(-0.91 -0.91)"/><path class="cls-9" d="M291.75,385.57c12.37,14.16,19.5,30.2,14.77,49.08-4.29,17.16-14.08,31.12-28.71,41.47,4.5-14.79,6.85-29.82,8.51-45S292.56,401.13,291.75,385.57Z" transform="translate(-0.91 -0.91)"/><path class="cls-8" d="M757.32,470.08c-6.26-.64-11.09-3.74-16.35-5.32-2.86-.86-5.69-2.17-8.62-2.29-6-.25-8.71-3-9.85-9-2.38-12.49-4.92-25-9.5-36.93-.14-.38.16-.92.34-1.84C735.16,427.41,748.43,446.47,757.32,470.08Z" transform="translate(-0.91 -0.91)"/><path class="cls-9" d="M322.1,394.65c-4.39-26.77-1-51.23,11.13-74.72,2.82,3,1.6,6.42,2.62,9.35,1.62,4.65,2.22,9.66,3.95,14.26,2.48,6.6,2.6,12.81-1.17,18.89-4.48,7.22-7.05,15.31-10.51,23A37.08,37.08,0,0,1,322.1,394.65Z" transform="translate(-0.91 -0.91)"/><path class="cls-9" d="M400,259.11c-1.63,10.48-3.34,20.23-4.58,30-.55,4.37-2.77,7.84-4.94,11.28-6.6,10.43-15.82,18.18-26.27,24.56-.84.51-1.75,1.32-2.62.4s0-1.82.22-2.77c2.64-9.66,7.6-18.28,12-27.14,6.39-12.81,14-24.79,23.92-35.16A10.25,10.25,0,0,1,400,259.11Z" transform="translate(-0.91 -0.91)"/><path class="cls-10" d="M474.23,241.23c-2.6,6.52-7,10.91-7.73,17.06-.2,1.77-.46,3.58-.71,5.38-.84,6-3.06,8.68-9.09,9.17-9.1.73-18,2.79-26.92,4.21-4.08.64-7.69,3.09-13.16,2.92C433.55,263,451.12,249.09,474.23,241.23Z" transform="translate(-0.91 -0.91)"/><path class="cls-11" d="M710.67,359.69a91.52,91.52,0,0,0-26.94,4.48,2.37,2.37,0,0,1-2.66-.91c-8.1-10.85-17.33-20.71-26.55-30.74C676.79,333.52,694.13,344.5,710.67,359.69Z" transform="translate(-0.91 -0.91)"/><path class="cls-8" d="M582.46,288.76c6.9-9.84,16.78-13.13,27.89-13.76,6.87-.39,13.71-1.75,21.3-.76-6.83,4.42-13.14,8.5-19.46,12.58-1.81,1.16-4,1.94-5.4,3.48-6,6.76-12.13,5.16-18.59.82C586.6,290,584.58,289.61,582.46,288.76Z" transform="translate(-0.91 -0.91)"/><path class="cls-12" d="M370,547c3-5.88,5.78-7.42,11.75-7a90.72,90.72,0,0,0,10,0c1.29,0,2.78-.29,3.23-1.82s-.85-2-1.72-2.71c-1.64-1.41-3.12-3-4.86-4.27-3-2.19-1.77-4.17.16-6,2.8-2.73,3,.74,4.14,1.87,1.77,1.78,2.95,4.31,5.83,5,.85-2.31-1.26-2.76-1.71-4s-4.45-2.12-.17-3.89c1.25-.52-.57-1.88-1.61-2.09-4.09-.8-2.91-2.51-1-4.58,1.36-1.45,2.52-3.07,3.63-4.44,7.29,6.94,7,13.53,2.45,21.32-4,6.93-6.62,14.72-9.78,22.15-1.18,2.78-2.37,4.12-5.2,1.41s-5.83-4.75-9.42-7.62c5.63,0,10.53,1.74,15-.68V548.1l-20.76-1.18Z" transform="translate(-0.91 -0.91)"/><path class="cls-12" d="M369.92,546.93c.15,4.22,4.05,5.36,6.44,7.72a46.5,46.5,0,0,0,5.08,4c5.4,4,5.24,3.91,1.73,9.87-1.39,2.36-3.08,3-5.31,2.33-5.22-1.54-10.38-3.27-15.53-5-1-.34-2.32-.73-1.62-2.44.51-1.24.76-2.61,2.58-2.4,2,.23,3.95.51,5.93.66,1.17.09,2.43,0,2.89-1.37a2.35,2.35,0,0,0-1.19-3c-6.66-2.91-2.89-6.65-.93-10.27Z" transform="translate(-0.91 -0.91)"/><path class="cls-13" d="M350.31,582.48c2.9-3.52,4.55-7.34,6.26-11.1,1-2.1,1.75-2.51,3.42-.54a55.5,55.5,0,0,0,11,9.33c1.24.86,4,1.12,2.25,3.88-1.29,2.08-2,4.52-5.48,3.87A78.35,78.35,0,0,1,350.31,582.48Z" transform="translate(-0.91 -0.91)"/><path class="cls-14" d="M413.45,490.94,405.9,519.3c-5.49-4.62-6.61-8-3.5-13,3.27-5.27,7-10.25,9.88-15.82Z" transform="translate(-0.91 -0.91)"/><path class="cls-15" d="M332.85,593.82c-8.16.82-14.44-2.82-21.07-4.92-.47-.15-1.16-1.22-1.06-1.35,1.59-2.17,4-3.32,6.14-4.87,1.48-1.09,2.36-.18,3.42.71C324.2,586.68,328.15,589.92,332.85,593.82Z" transform="translate(-0.91 -0.91)"/><path class="cls-16" d="M346,586.18c6.86,1,12.75,3.69,19.16,4.66,1.21.18,3.84,0,2.19,2.33-1.25,1.77-1.25,6.5-5.1,4.25C356.59,594.11,351.41,590,346,586.18Z" transform="translate(-0.91 -0.91)"/><path class="cls-17" d="M337.59,608.83c4.38-9.65,4.44-9.7,11.47-2.41,1.63,1.69,5.32,3.37,4.16,5.41-1.58,2.79-4.64-.29-7.06-.64A65.57,65.57,0,0,1,337.59,608.83Z" transform="translate(-0.91 -0.91)"/><path class="cls-18" d="M335.13,613.31c2.53,2.33,4.85,4.39,7.08,6.55,1,.95,2.75,1.92,1,3.59-1.22,1.18-2.17,3.3-4.44,2.31-2.58-1.12-5.06-2.46-7.59-3.7-1.53-.75-1.18-1.71-.38-2.79C332.19,617.41,333.52,615.53,335.13,613.31Z" transform="translate(-0.91 -0.91)"/><path class="cls-19" d="M379.43,574.26c-2.55,6.47-2.58,6.5-7.84,2.69a66.06,66.06,0,0,1-7.82-6.55C369,571.8,374.12,573.38,379.43,574.26Z" transform="translate(-0.91 -0.91)"/><path class="cls-20" d="M358.62,599.09c-4.62.33-8.47-1.53-12.49-2.9-2.91-1-.83-2.69-.56-3.93.38-1.76,1.48-1.15,2.57-.38C351.6,594.33,355.12,596.7,358.62,599.09Z" transform="translate(-0.91 -0.91)"/><path class="cls-21" d="M309.09,599.81a24,24,0,0,1-9.37-.42c-1.18-.29-3.22.23-3.28-1.43s2-2.46,3.2-3.51c1.08-.91,1.93-1.6,3.28-.16C304.58,596.06,306.54,597.56,309.09,599.81Z" transform="translate(-0.91 -0.91)"/><path class="cls-22" d="M325.75,627.14c2,1.85,5.16,3.37,4,5.93-.62,1.41-5.54,2.68-5.89,2.18C321.91,632.4,326.06,630.29,325.75,627.14Z" transform="translate(-0.91 -0.91)"/><path class="cls-23" d="M390.16,536.9h-10.5C383.22,529.78,383.67,529.75,390.16,536.9Z" transform="translate(-0.91 -0.91)"/><path class="cls-24" d="M353.93,557.18c6.11-5.22,6.11-5.22,12.55.41C362.37,558.88,358.76,556.38,353.93,557.18Z" transform="translate(-0.91 -0.91)"/><path class="cls-25" d="M337.61,580c-2-.51-3.45-1.71-3.6-4-.12-1.84,1.26-2.09,2.69-2,2.19.15,4,1.1,4.08,3.45C340.88,579.31,339.45,580,337.61,580Z" transform="translate(-0.91 -0.91)"/><path class="cls-26" d="M350.56,615.42c-3.71,5.66-4.37,5.49-10.21-2.31l5.06,1.12Z" transform="translate(-0.91 -0.91)"/><path class="cls-26" d="M349.59,601.21c2.48.67,5,1.32,7.45,2,.93.27,2.15.66,1.86,1.85a6.65,6.65,0,0,1-1.76,2.85c-1,1-1.69,0-2.45-.62-2.08-1.59-4.18-3.15-6.28-4.72Z" transform="translate(-0.91 -0.91)"/><path class="cls-27" d="M345.55,570.07a18.46,18.46,0,0,1-9-1.41C340.25,564.3,340.59,564.35,345.55,570.07Z" transform="translate(-0.91 -0.91)"/><path class="cls-28" d="M332.27,589c4,1.13,6,3.51,9,3.13,0,2.2-.93,3.46-2.37,5.44C337.92,593.86,334.72,592.59,332.27,589Z" transform="translate(-0.91 -0.91)"/><path class="cls-29" d="M330.73,581.89c-2.76,0-4.47-1.39-6.33-2.29-.87-.42-1.88-1.16-.7-2.21.89-.8,1.87-2.24,3.22-.44C328.06,578.48,329.26,580,330.73,581.89Z" transform="translate(-0.91 -0.91)"/><path class="cls-30" d="M291.05,609.71c-2.61.08-5.3.62-7.78-1.05C286.61,603.16,288.7,607.78,291.05,609.71Z" transform="translate(-0.91 -0.91)"/><path class="cls-31" d="M330,624.93l6.86,3.43C333.31,631.9,333.31,631.9,330,624.93Z" transform="translate(-0.91 -0.91)"/><path class="cls-32" d="M313.51,593.44c-3.25.84-6.05-.57-9.44-1.7C308.23,588.66,310.66,592,313.51,593.44Z" transform="translate(-0.91 -0.91)"/><path class="cls-33" d="M346.42,566.77c1.38-.41,1.58-.54,1.67-.48,1.76,1,4.32.43,5.27,2.8a1.43,1.43,0,0,1-.64,1.22C349.89,570.76,349.1,568.08,346.42,566.77Z" transform="translate(-0.91 -0.91)"/><path class="cls-34" d="M325.12,625.3c-3-1.17-3.57-3.32-5.34-4.94C324.24,619.33,324.54,621.87,325.12,625.3Z" transform="translate(-0.91 -0.91)"/><path class="cls-35" d="M350.9,468.16c1.41-14.19,4.91-27.62,12.48-40.12,8.63-14.25,20.75-24.71,33.84-34.36,1.15-.84,2.53-2.09,4-1.28s.82,2.43.69,3.63c-2.35,20.6-6.9,40.33-22.61,55.51-7,6.79-13.47,14.21-21.54,19.89-1.77,1.25-3.51,3.21-5.69,2.21S351.45,470,350.9,468.16Z" transform="translate(-0.91 -0.91)"/><path class="cls-36" d="M325.95,432.08c.47-5.92,2.93-12.58,5.25-19.29.42-1.22.91-2.29,2.41-1.73,1.72.65.68,1.89.44,2.93-1.6,7.06-4.65,13.72-4.27,21.32.26,5.2,2.18,9.62,3.92,14.24.48,1.28,2,2.9-.16,3.81-1.91.81-2.53-1.14-3.15-2.41A42.13,42.13,0,0,1,325.95,432.08Z" transform="translate(-0.91 -0.91)"/><path class="cls-37" d="M272.26,526c.42-2.18,2.39-2.67,4.1-3.66,1.15-.66,1.93-1.85,3.38-.88,1.65,1.1,1.08,2.49.51,3.95-.48,1.22-.72,2.53-1.1,3.78s.23,3-1.92,2.74c-1.76-.21-1.28-1.75-1.2-2.76.13-1.84-.81-1.69-2.09-1.56C273.05,527.64,272.41,527.06,272.26,526Z" transform="translate(-0.91 -0.91)"/><path class="cls-2" d="M403.24,524.12c-2.21,1.23-3.64,1.06-5.64-.28C399.84,522.55,401.28,522.76,403.24,524.12Z" transform="translate(-0.91 -0.91)"/><path class="cls-38" d="M380.87,440.51c-1.66-1-.17-3.62-2.39-3.52s-1.63,2.33-1.81,3.54c-1,6.44-4.92,10.65-9.85,14.3a7.28,7.28,0,0,1-3.64,1.39c-4.79.56-6.29-.92-4-5,3.51-6.23,4.21-13.74,9.11-19.29,1.61-1.82,2.89-3.93,4.28-5.84.6.25,1,.3,1.12.5.74,1.57.57,3.73,2.77,4.32a1.36,1.36,0,0,0,1.21-.53c.78-2-.21-3.55-1.56-4.86s-1.66-3.3-.43-4.43c6.55-6,10.29-14.78,18.53-19.12a28,28,0,0,1,2.63-1C393.07,415,390.42,428.95,380.87,440.51Z" transform="translate(-0.91 -0.91)"/><path class="cls-39" d="M356.19,466c.73-4.13,0-8.78,5.93-5.53Z" transform="translate(-0.91 -0.91)"/></g></g></svg>